<svg xmlns="http://www.w3.org/2000/svg" xmlns:xlink="http://www.w3.org/1999/xlink" viewBox="0 0 32 32" width="32" height="32" preserveAspectRatio="xMidYMid meet"><defs><clipPath id="__lottie_element_7"><rect width="32" height="32" x="0" y="0"></rect></clipPath></defs><g clip-path="url(#__lottie_element_7)"><g transform="matrix(1,0,0,1,4,4)" opacity="1" style="display: block;"><g opacity="1" transform="matrix(1,0,0,1,0,0)"><path stroke-linecap="round" stroke-linejoin="miter" fill-opacity="0" stroke-miterlimit="10" stroke="rgb(0,0,0)" stroke-opacity="1" stroke-width="2" d=" M2.5,19 C2.5,19 21.5,19 21.5,19"></path></g><g opacity="1" transform="matrix(1,0,0,1,0,0.000004221290055284044)"><path stroke-linecap="round" stroke-linejoin="miter" fill-opacity="0" stroke-miterlimit="10" stroke="rgb(0,0,0)" stroke-opacity="1" stroke-width="2" d=" M2.5,12 C2.5,12 21.5,12 21.5,12"></path></g><g opacity="1" transform="matrix(1,0,0,1,17,13.500008583068848)"><path fill="rgb(0,0,0)" fill-opacity="1" d=" M0,-1 C0,-1 -3,-1.5 -3,-1.5 C-3,-1.5 3,-1.5 3,-1.5 C3,-1.5 0,-1 0,-1z"></path></g><g opacity="1" transform="matrix(1,0,0,1,12,2)"><path stroke-linecap="round" stroke-linejoin="miter" fill-opacity="0" stroke-miterlimit="10" stroke="rgb(0,0,0)" stroke-opacity="1" stroke-width="2" d=" M-9.5,3 C-9.5,3 -9,3 0,3 C9,3 9.5,3 9.5,3"></path></g></g></g></svg>